<svg width="67" height="67" viewBox="0 0 67 67" fill="none" xmlns="http://www.w3.org/2000/svg">
<path d="M6.28125 8.375C2.81348 8.375 0 11.1885 0 14.6562C0 16.6322 0.929102 18.4904 2.5125 19.6812L30.9875 41.0375C32.4793 42.1498 34.5207 42.1498 36.0125 41.0375L64.4875 19.6812C66.0709 18.4904 67 16.6322 67 14.6562C67 11.1885 64.1865 8.375 60.7188 8.375H6.28125ZM0 23.0312V50.25C0 54.8693 3.75566 58.625 8.375 58.625H58.625C63.2443 58.625 67 54.8693 67 50.25V23.0312L38.525 44.3875C35.5414 46.6252 31.4586 46.6252 28.475 44.3875L0 23.0312Z" fill="#6BA292"/>
</svg>
