<svg width="27" height="36" viewBox="0 0 27 36" fill="none" xmlns="http://www.w3.org/2000/svg">
<g clip-path="url(#clip0_17_287)">
<path d="M15.1664 35.1C18.7734 30.5859 27 19.6453 27 13.5C27 6.04688 20.9531 0 13.5 0C6.04688 0 0 6.04688 0 13.5C0 19.6453 8.22656 30.5859 11.8336 35.1C12.6984 36.1758 14.3016 36.1758 15.1664 35.1ZM13.5 9C14.6935 9 15.8381 9.47411 16.682 10.318C17.5259 11.1619 18 12.3065 18 13.5C18 14.6935 17.5259 15.8381 16.682 16.682C15.8381 17.5259 14.6935 18 13.5 18C12.3065 18 11.1619 17.5259 10.318 16.682C9.47411 15.8381 9 14.6935 9 13.5C9 12.3065 9.47411 11.1619 10.318 10.318C11.1619 9.47411 12.3065 9 13.5 9Z" fill="white"/>
</g>
<defs>
<clipPath id="clip0_17_287">
<rect width="27" height="36" fill="white"/>
</clipPath>
</defs>
</svg>
