<svg width="237" height="77" viewBox="0 0 237 77" fill="none" xmlns="http://www.w3.org/2000/svg">
<path d="M20.5946 29.6V1.6H24.9146V29.6H20.5946ZM2.31464 29.6V1.6H6.63464V29.6H2.31464ZM4.19464 17.72V13.56H22.5146V17.72H4.19464Z" fill="black"/>
<path d="M41.5043 30C39.3443 30 37.4243 29.5467 35.7443 28.64C34.091 27.7067 32.7843 26.44 31.8243 24.84C30.891 23.24 30.4243 21.4 30.4243 19.32C30.4243 17.6667 30.691 16.16 31.2243 14.8C31.7577 13.44 32.491 12.2667 33.4243 11.28C34.3843 10.2667 35.5177 9.49333 36.8243 8.96C38.1577 8.4 39.5977 8.12 41.1443 8.12C42.5043 8.12 43.771 8.38667 44.9443 8.92C46.1177 9.42667 47.131 10.1333 47.9843 11.04C48.8643 11.9467 49.531 13.0267 49.9843 14.28C50.4643 15.5067 50.691 16.8533 50.6643 18.32L50.6243 20.08H33.4643L32.5443 16.8H47.0643L46.4643 17.48V16.52C46.3843 15.64 46.091 14.8533 45.5843 14.16C45.0777 13.4667 44.4377 12.92 43.6643 12.52C42.891 12.12 42.051 11.92 41.1443 11.92C39.7043 11.92 38.491 12.2 37.5043 12.76C36.5177 13.2933 35.771 14.0933 35.2643 15.16C34.7577 16.2 34.5043 17.4933 34.5043 19.04C34.5043 20.5067 34.811 21.7867 35.4243 22.88C36.0377 23.9467 36.9043 24.7733 38.0243 25.36C39.1443 25.9467 40.4377 26.24 41.9043 26.24C42.9443 26.24 43.9043 26.0667 44.7843 25.72C45.691 25.3733 46.6643 24.7467 47.7043 23.84L49.7843 26.76C49.1443 27.4 48.3577 27.96 47.4243 28.44C46.5177 28.92 45.5443 29.3067 44.5043 29.6C43.491 29.8667 42.491 30 41.5043 30Z" fill="black"/>
<path d="M63.2218 30C61.4885 30 59.9018 29.52 58.4618 28.56C57.0485 27.6 55.9152 26.2933 55.0618 24.64C54.2085 22.9867 53.7818 21.12 53.7818 19.04C53.7818 16.9333 54.2085 15.0667 55.0618 13.44C55.9418 11.7867 57.1152 10.4933 58.5818 9.56C60.0752 8.62667 61.7418 8.16 63.5818 8.16C64.6752 8.16 65.6752 8.32 66.5818 8.64C67.4885 8.96 68.2752 9.41333 68.9418 10C69.6352 10.56 70.1952 11.2133 70.6218 11.96C71.0752 12.7067 71.3552 13.5067 71.4618 14.36L70.5418 14.04V8.6H74.7018V29.6H70.5418V24.6L71.5018 24.32C71.3418 25.04 71.0085 25.7467 70.5018 26.44C70.0218 27.1067 69.3952 27.7067 68.6218 28.24C67.8752 28.7733 67.0352 29.2 66.1018 29.52C65.1952 29.84 64.2352 30 63.2218 30ZM64.3018 26.2C65.5552 26.2 66.6618 25.8933 67.6218 25.28C68.5818 24.6667 69.3285 23.8267 69.8618 22.76C70.4218 21.6667 70.7018 20.4267 70.7018 19.04C70.7018 17.68 70.4218 16.4667 69.8618 15.4C69.3285 14.3333 68.5818 13.4933 67.6218 12.88C66.6618 12.2667 65.5552 11.96 64.3018 11.96C63.0752 11.96 61.9818 12.2667 61.0218 12.88C60.0885 13.4933 59.3418 14.3333 58.7818 15.4C58.2485 16.4667 57.9818 17.68 57.9818 19.04C57.9818 20.4267 58.2485 21.6667 58.7818 22.76C59.3418 23.8267 60.0885 24.6667 61.0218 25.28C61.9818 25.8933 63.0752 26.2 64.3018 26.2Z" fill="black"/>
<path d="M80.4543 29.6V8.6H84.6143V15.2L84.2143 13.6C84.5077 12.5867 85.001 11.6667 85.6943 10.84C86.4143 10.0133 87.2277 9.36 88.1343 8.88C89.0677 8.4 90.0277 8.16 91.0143 8.16C91.4677 8.16 91.8943 8.2 92.2943 8.28C92.721 8.36 93.0543 8.45333 93.2943 8.56L92.2143 13.04C91.8943 12.9067 91.5343 12.8 91.1343 12.72C90.761 12.6133 90.3877 12.56 90.0143 12.56C89.2943 12.56 88.601 12.7067 87.9343 13C87.2943 13.2667 86.721 13.6533 86.2143 14.16C85.7343 14.64 85.3477 15.2133 85.0543 15.88C84.761 16.52 84.6143 17.2267 84.6143 18V29.6H80.4543Z" fill="black"/>
<path d="M99.9684 29.6V3.24H104.088V29.6H99.9684ZM95.6084 12.6V8.6H108.968V12.6H95.6084Z" fill="black"/>
<path d="M112.72 29.6V0H116.84V12.92L116.12 13.4C116.387 12.4667 116.907 11.6133 117.68 10.84C118.453 10.04 119.373 9.4 120.44 8.92C121.507 8.41333 122.6 8.16 123.72 8.16C125.32 8.16 126.653 8.48 127.72 9.12C128.787 9.73333 129.587 10.68 130.12 11.96C130.653 13.24 130.92 14.8533 130.92 16.8V29.6H126.8V17.08C126.8 15.88 126.64 14.8933 126.32 14.12C126 13.32 125.507 12.7467 124.84 12.4C124.173 12.0267 123.347 11.8667 122.36 11.92C121.56 11.92 120.827 12.0533 120.16 12.32C119.493 12.56 118.907 12.9067 118.4 13.36C117.92 13.8133 117.533 14.3467 117.24 14.96C116.973 15.5467 116.84 16.1867 116.84 16.88V29.6H114.8C114.453 29.6 114.107 29.6 113.76 29.6C113.413 29.6 113.067 29.6 112.72 29.6Z" fill="black"/>
<path d="M141.669 29.6L134.509 8.6L138.669 8.56L143.789 24.28L142.869 24.2L148.429 11.92H150.909L156.509 24.24L155.429 24.32L160.589 8.6H164.749L157.669 29.6H154.829L148.989 16.24L149.909 16.36L144.469 29.6H141.669Z" fill="black"/>
<path d="M177.355 30C175.302 30 173.462 29.5333 171.835 28.6C170.235 27.64 168.969 26.3467 168.035 24.72C167.102 23.0667 166.635 21.1867 166.635 19.08C166.635 16.9733 167.102 15.1067 168.035 13.48C168.969 11.8267 170.235 10.5333 171.835 9.6C173.462 8.64 175.302 8.16 177.355 8.16C179.382 8.16 181.195 8.64 182.795 9.6C184.422 10.5333 185.702 11.8267 186.635 13.48C187.569 15.1067 188.035 16.9733 188.035 19.08C188.035 21.1867 187.569 23.0667 186.635 24.72C185.702 26.3467 184.422 27.64 182.795 28.6C181.195 29.5333 179.382 30 177.355 30ZM177.355 26.24C178.609 26.24 179.729 25.9333 180.715 25.32C181.702 24.68 182.475 23.8267 183.035 22.76C183.595 21.6667 183.862 20.44 183.835 19.08C183.862 17.6933 183.595 16.4667 183.035 15.4C182.475 14.3067 181.702 13.4533 180.715 12.84C179.729 12.2267 178.609 11.92 177.355 11.92C176.102 11.92 174.969 12.24 173.955 12.88C172.969 13.4933 172.195 14.3467 171.635 15.44C171.075 16.5067 170.809 17.72 170.835 19.08C170.809 20.44 171.075 21.6667 171.635 22.76C172.195 23.8267 172.969 24.68 173.955 25.32C174.969 25.9333 176.102 26.24 177.355 26.24Z" fill="black"/>
<path d="M201.965 30C199.911 30 198.071 29.5333 196.445 28.6C194.845 27.64 193.578 26.3467 192.645 24.72C191.711 23.0667 191.245 21.1867 191.245 19.08C191.245 16.9733 191.711 15.1067 192.645 13.48C193.578 11.8267 194.845 10.5333 196.445 9.6C198.071 8.64 199.911 8.16 201.965 8.16C203.991 8.16 205.805 8.64 207.405 9.6C209.031 10.5333 210.311 11.8267 211.245 13.48C212.178 15.1067 212.645 16.9733 212.645 19.08C212.645 21.1867 212.178 23.0667 211.245 24.72C210.311 26.3467 209.031 27.64 207.405 28.6C205.805 29.5333 203.991 30 201.965 30ZM201.965 26.24C203.218 26.24 204.338 25.9333 205.325 25.32C206.311 24.68 207.085 23.8267 207.645 22.76C208.205 21.6667 208.471 20.44 208.445 19.08C208.471 17.6933 208.205 16.4667 207.645 15.4C207.085 14.3067 206.311 13.4533 205.325 12.84C204.338 12.2267 203.218 11.92 201.965 11.92C200.711 11.92 199.578 12.24 198.565 12.88C197.578 13.4933 196.805 14.3467 196.245 15.44C195.685 16.5067 195.418 17.72 195.445 19.08C195.418 20.44 195.685 21.6667 196.245 22.76C196.805 23.8267 197.578 24.68 198.565 25.32C199.578 25.9333 200.711 26.24 201.965 26.24Z" fill="black"/>
<path d="M225.894 30C223.974 30 222.254 29.5333 220.734 28.6C219.241 27.64 218.054 26.3467 217.174 24.72C216.294 23.0667 215.854 21.1867 215.854 19.08C215.854 16.9733 216.281 15.1067 217.134 13.48C218.014 11.8267 219.201 10.5333 220.694 9.6C222.187 8.64 223.881 8.16 225.774 8.16C226.814 8.16 227.814 8.33333 228.774 8.68C229.761 9 230.641 9.45333 231.414 10.04C232.187 10.6 232.787 11.2267 233.214 11.92C233.667 12.5867 233.894 13.2667 233.894 13.96L232.694 14.04V0H236.814V29.6H232.694V24.6H233.494C233.494 25.24 233.281 25.88 232.854 26.52C232.427 27.1333 231.854 27.7067 231.134 28.24C230.441 28.7733 229.627 29.2 228.694 29.52C227.787 29.84 226.854 30 225.894 30ZM226.454 26.44C227.707 26.44 228.814 26.12 229.774 25.48C230.734 24.84 231.481 23.9733 232.014 22.88C232.574 21.76 232.854 20.4933 232.854 19.08C232.854 17.6667 232.574 16.4133 232.014 15.32C231.481 14.2 230.734 13.32 229.774 12.68C228.814 12.04 227.707 11.72 226.454 11.72C225.201 11.72 224.094 12.04 223.134 12.68C222.174 13.32 221.414 14.2 220.854 15.32C220.321 16.4133 220.054 17.6667 220.054 19.08C220.054 20.4933 220.321 21.76 220.854 22.88C221.414 23.9733 222.174 24.84 223.134 25.48C224.094 26.12 225.201 26.44 226.454 26.44Z" fill="black"/>
<path d="M8.56091 67.6L0.0869141 41H4.45691L9.58692 57.644C9.73891 58.0493 9.87825 58.5307 10.0049 59.088C10.1316 59.62 10.2456 60.1647 10.3469 60.722C10.4482 61.2793 10.5369 61.7987 10.6129 62.28C10.7142 62.7613 10.8029 63.154 10.8789 63.458L9.77691 63.42C10.1569 62.0773 10.4482 61.0387 10.6509 60.304C10.8789 59.5693 11.0562 59.012 11.1829 58.632C11.3096 58.2267 11.4236 57.8847 11.5249 57.606L16.3129 45.598H19.9989L24.6349 57.606C24.8882 58.214 25.1036 58.822 25.2809 59.43C25.4836 60.0127 25.6609 60.608 25.8129 61.216C25.9649 61.7987 26.1296 62.4193 26.3069 63.078L25.3189 63.344C25.4456 62.66 25.5342 62.128 25.5849 61.748C25.6609 61.3427 25.7242 61.0133 25.7749 60.76C25.8256 60.5067 25.8762 60.266 25.9269 60.038C25.9776 59.7847 26.0536 59.468 26.1549 59.088C26.2816 58.708 26.4462 58.1887 26.6489 57.53L31.7029 41H36.1109L27.6369 67.6H24.7869L17.7569 50.956L18.0989 51.108L11.3349 67.6H8.56091Z" fill="black"/>
<path d="M48.1076 67.98C46.0556 67.98 44.2316 67.5493 42.6356 66.688C41.065 65.8013 39.8236 64.598 38.9116 63.078C38.025 61.558 37.5816 59.81 37.5816 57.834C37.5816 56.2633 37.835 54.832 38.3416 53.54C38.8483 52.248 39.545 51.1333 40.4316 50.196C41.3436 49.2333 42.4203 48.4987 43.6616 47.992C44.9283 47.46 46.2963 47.194 47.7656 47.194C49.0576 47.194 50.261 47.4473 51.3756 47.954C52.4903 48.4353 53.453 49.1067 54.2636 49.968C55.0996 50.8293 55.733 51.8553 56.1636 53.046C56.6196 54.2113 56.835 55.4907 56.8096 56.884L56.7716 58.556H40.4696L39.5956 55.44H53.3896L52.8196 56.086V55.174C52.7436 54.338 52.465 53.5907 51.9836 52.932C51.5023 52.2733 50.8943 51.754 50.1596 51.374C49.425 50.994 48.627 50.804 47.7656 50.804C46.3976 50.804 45.245 51.07 44.3076 51.602C43.3703 52.1087 42.661 52.8687 42.1796 53.882C41.6983 54.87 41.4576 56.0987 41.4576 57.568C41.4576 58.9613 41.749 60.1773 42.3316 61.216C42.9143 62.2293 43.7376 63.0147 44.8016 63.572C45.8656 64.1293 47.0943 64.408 48.4876 64.408C49.4756 64.408 50.3876 64.2433 51.2236 63.914C52.085 63.5847 53.0096 62.9893 53.9976 62.128L55.9736 64.902C55.3656 65.51 54.6183 66.042 53.7316 66.498C52.8703 66.954 51.9456 67.3213 50.9576 67.6C49.995 67.8533 49.045 67.98 48.1076 67.98Z" fill="black"/>
<path d="M71.5513 67.98C70.6899 67.98 69.8286 67.8407 68.9673 67.562C68.1313 67.2833 67.3586 66.916 66.6493 66.46C65.9653 65.9787 65.3826 65.4593 64.9013 64.902C64.4453 64.3193 64.1413 63.7367 63.9893 63.154L64.9773 62.622V67.486H61.0633V39.48H64.9773V52.21L64.3693 51.868C64.4959 51.2853 64.7746 50.728 65.2053 50.196C65.6359 49.6387 66.1806 49.1447 66.8393 48.714C67.5233 48.258 68.2579 47.9033 69.0433 47.65C69.8286 47.3713 70.6266 47.232 71.4373 47.232C73.2359 47.232 74.8319 47.6753 76.2253 48.562C77.6186 49.4487 78.7206 50.6773 79.5313 52.248C80.3419 53.7933 80.7473 55.5667 80.7473 57.568C80.7473 59.5693 80.3419 61.3553 79.5313 62.926C78.7459 64.4967 77.6566 65.738 76.2633 66.65C74.8699 67.5367 73.2993 67.98 71.5513 67.98ZM70.9053 64.408C72.0706 64.408 73.1093 64.1167 74.0213 63.534C74.9333 62.926 75.6553 62.1153 76.1873 61.102C76.7193 60.0633 76.9853 58.8853 76.9853 57.568C76.9853 56.276 76.7193 55.1233 76.1873 54.11C75.6806 53.0713 74.9713 52.2607 74.0593 51.678C73.1473 51.0953 72.0959 50.804 70.9053 50.804C69.7146 50.804 68.6633 51.0953 67.7513 51.678C66.8393 52.2607 66.1173 53.0713 65.5853 54.11C65.0533 55.1233 64.7873 56.276 64.7873 57.568C64.7873 58.8853 65.0533 60.0633 65.5853 61.102C66.1173 62.1153 66.8393 62.926 67.7513 63.534C68.6633 64.1167 69.7146 64.408 70.9053 64.408Z" fill="black"/>
<path d="M96.6372 67.6V41H107.049C108.949 41 110.659 41.3167 112.179 41.95C113.725 42.5833 115.042 43.4953 116.131 44.686C117.221 45.8767 118.057 47.2827 118.639 48.904C119.222 50.5253 119.513 52.324 119.513 54.3C119.513 56.276 119.222 58.0873 118.639 59.734C118.057 61.3553 117.221 62.7613 116.131 63.952C115.067 65.1173 113.763 66.0167 112.217 66.65C110.672 67.2833 108.949 67.6 107.049 67.6H96.6372ZM100.741 64.066L100.627 63.648H106.859C108.202 63.648 109.393 63.4327 110.431 63.002C111.495 62.5713 112.382 61.9633 113.091 61.178C113.826 60.3673 114.383 59.3793 114.763 58.214C115.143 57.0487 115.333 55.744 115.333 54.3C115.333 52.856 115.143 51.564 114.763 50.424C114.383 49.2587 113.826 48.2707 113.091 47.46C112.357 46.6493 111.47 46.0287 110.431 45.598C109.393 45.1673 108.202 44.952 106.859 44.952H100.513L100.741 44.61V64.066Z" fill="black"/>
<path d="M133.385 67.98C131.333 67.98 129.509 67.5493 127.913 66.688C126.342 65.8013 125.101 64.598 124.189 63.078C123.302 61.558 122.859 59.81 122.859 57.834C122.859 56.2633 123.112 54.832 123.619 53.54C124.126 52.248 124.822 51.1333 125.709 50.196C126.621 49.2333 127.698 48.4987 128.939 47.992C130.206 47.46 131.574 47.194 133.043 47.194C134.335 47.194 135.538 47.4473 136.653 47.954C137.768 48.4353 138.73 49.1067 139.541 49.968C140.377 50.8293 141.01 51.8553 141.441 53.046C141.897 54.2113 142.112 55.4907 142.087 56.884L142.049 58.556H125.747L124.873 55.44H138.667L138.097 56.086V55.174C138.021 54.338 137.742 53.5907 137.261 52.932C136.78 52.2733 136.172 51.754 135.437 51.374C134.702 50.994 133.904 50.804 133.043 50.804C131.675 50.804 130.522 51.07 129.585 51.602C128.648 52.1087 127.938 52.8687 127.457 53.882C126.976 54.87 126.735 56.0987 126.735 57.568C126.735 58.9613 127.026 60.1773 127.609 61.216C128.192 62.2293 129.015 63.0147 130.079 63.572C131.143 64.1293 132.372 64.408 133.765 64.408C134.753 64.408 135.665 64.2433 136.501 63.914C137.362 63.5847 138.287 62.9893 139.275 62.128L141.251 64.902C140.643 65.51 139.896 66.042 139.009 66.498C138.148 66.954 137.223 67.3213 136.235 67.6C135.272 67.8533 134.322 67.98 133.385 67.98Z" fill="black"/>
<path d="M152.991 67.98C151.319 67.98 149.811 67.6887 148.469 67.106C147.126 66.5233 146.011 65.662 145.125 64.522L147.785 62.242C148.545 63.1287 149.368 63.7747 150.255 64.18C151.167 64.56 152.193 64.75 153.333 64.75C153.789 64.75 154.207 64.6993 154.587 64.598C154.992 64.4713 155.334 64.294 155.613 64.066C155.917 63.838 156.145 63.572 156.297 63.268C156.449 62.9387 156.525 62.584 156.525 62.204C156.525 61.5453 156.284 61.0133 155.803 60.608C155.549 60.4307 155.144 60.2407 154.587 60.038C154.055 59.81 153.358 59.582 152.497 59.354C151.027 58.974 149.824 58.5433 148.887 58.062C147.949 57.5807 147.227 57.036 146.721 56.428C146.341 55.9467 146.062 55.4273 145.885 54.87C145.707 54.2873 145.619 53.654 145.619 52.97C145.619 52.134 145.796 51.374 146.151 50.69C146.531 49.9807 147.037 49.3727 147.671 48.866C148.329 48.334 149.089 47.9287 149.951 47.65C150.837 47.3713 151.775 47.232 152.763 47.232C153.7 47.232 154.625 47.3587 155.537 47.612C156.474 47.8653 157.335 48.2327 158.121 48.714C158.906 49.1953 159.565 49.7653 160.097 50.424L157.855 52.894C157.373 52.4127 156.841 51.9947 156.259 51.64C155.701 51.26 155.131 50.9687 154.549 50.766C153.966 50.5633 153.434 50.462 152.953 50.462C152.421 50.462 151.939 50.5127 151.509 50.614C151.078 50.7153 150.711 50.8673 150.407 51.07C150.128 51.2727 149.913 51.526 149.761 51.83C149.609 52.134 149.533 52.476 149.533 52.856C149.558 53.1853 149.634 53.502 149.761 53.806C149.913 54.0847 150.115 54.3253 150.369 54.528C150.647 54.7307 151.065 54.946 151.623 55.174C152.18 55.402 152.889 55.6173 153.751 55.82C155.017 56.1493 156.056 56.5167 156.867 56.922C157.703 57.302 158.361 57.7453 158.843 58.252C159.349 58.7333 159.704 59.2907 159.907 59.924C160.109 60.5573 160.211 61.2667 160.211 62.052C160.211 63.192 159.881 64.218 159.223 65.13C158.589 66.0167 157.728 66.7133 156.639 67.22C155.549 67.7267 154.333 67.98 152.991 67.98Z" fill="black"/>
<path d="M165.17 67.6V47.65H169.084V67.6H165.17ZM167.07 43.242C166.234 43.242 165.588 43.0267 165.132 42.596C164.676 42.1653 164.448 41.5573 164.448 40.772C164.448 40.0373 164.676 39.442 165.132 38.986C165.614 38.53 166.26 38.302 167.07 38.302C167.906 38.302 168.552 38.5173 169.008 38.948C169.464 39.3787 169.692 39.9867 169.692 40.772C169.692 41.5067 169.452 42.102 168.97 42.558C168.514 43.014 167.881 43.242 167.07 43.242Z" fill="black"/>
<path d="M184.03 76.34C182.612 76.34 181.193 76.112 179.774 75.656C178.381 75.2253 177.254 74.6553 176.392 73.946L177.836 70.906C178.343 71.286 178.938 71.6153 179.622 71.894C180.306 72.198 181.028 72.426 181.788 72.578C182.548 72.7553 183.296 72.844 184.03 72.844C185.424 72.844 186.589 72.616 187.526 72.16C188.464 71.704 189.173 71.0327 189.654 70.146C190.136 69.2593 190.376 68.1573 190.376 66.84V63.002L190.794 63.268C190.668 64.0533 190.25 64.8133 189.54 65.548C188.856 66.2573 187.995 66.84 186.956 67.296C185.918 67.752 184.854 67.98 183.764 67.98C181.864 67.98 180.167 67.5367 178.672 66.65C177.203 65.738 176.038 64.5093 175.176 62.964C174.315 61.3933 173.884 59.6073 173.884 57.606C173.884 55.6047 174.302 53.8313 175.138 52.286C176 50.7153 177.165 49.4867 178.634 48.6C180.129 47.688 181.801 47.232 183.65 47.232C184.41 47.232 185.145 47.3333 185.854 47.536C186.564 47.7133 187.222 47.9793 187.83 48.334C188.438 48.6633 188.983 49.0307 189.464 49.436C189.946 49.8413 190.338 50.272 190.642 50.728C190.946 51.184 191.136 51.6147 191.212 52.02L190.376 52.324V47.65H194.29V66.384C194.29 67.98 194.05 69.386 193.568 70.602C193.112 71.8433 192.441 72.882 191.554 73.718C190.668 74.5793 189.591 75.2253 188.324 75.656C187.058 76.112 185.626 76.34 184.03 76.34ZM184.182 64.37C185.424 64.37 186.526 64.0787 187.488 63.496C188.451 62.9133 189.198 62.1153 189.73 61.102C190.262 60.0887 190.528 58.9233 190.528 57.606C190.528 56.2887 190.25 55.1233 189.692 54.11C189.16 53.0713 188.413 52.2607 187.45 51.678C186.513 51.0953 185.424 50.804 184.182 50.804C182.966 50.804 181.877 51.108 180.914 51.716C179.977 52.2987 179.23 53.1093 178.672 54.148C178.14 55.1613 177.874 56.314 177.874 57.606C177.874 58.898 178.14 60.0633 178.672 61.102C179.23 62.1153 179.977 62.9133 180.914 63.496C181.877 64.0787 182.966 64.37 184.182 64.37Z" fill="black"/>
<path d="M199.778 67.6V47.65H203.692V51.754L203.008 52.21C203.261 51.3233 203.755 50.5127 204.49 49.778C205.225 49.018 206.099 48.41 207.112 47.954C208.125 47.4727 209.164 47.232 210.228 47.232C211.748 47.232 213.015 47.536 214.028 48.144C215.041 48.7267 215.801 49.626 216.308 50.842C216.815 52.058 217.068 53.5907 217.068 55.44V67.6H213.154V55.706C213.154 54.566 213.002 53.6287 212.698 52.894C212.394 52.134 211.925 51.5893 211.292 51.26C210.659 50.9053 209.873 50.7533 208.936 50.804C208.176 50.804 207.479 50.9307 206.846 51.184C206.213 51.412 205.655 51.7413 205.174 52.172C204.718 52.6027 204.351 53.1093 204.072 53.692C203.819 54.2493 203.692 54.8573 203.692 55.516V67.6H201.754C201.425 67.6 201.095 67.6 200.766 67.6C200.437 67.6 200.107 67.6 199.778 67.6Z" fill="black"/>
<path d="M229.028 67.98C227.356 67.98 225.848 67.6887 224.506 67.106C223.163 66.5233 222.048 65.662 221.162 64.522L223.822 62.242C224.582 63.1287 225.405 63.7747 226.292 64.18C227.204 64.56 228.23 64.75 229.37 64.75C229.826 64.75 230.244 64.6993 230.624 64.598C231.029 64.4713 231.371 64.294 231.65 64.066C231.954 63.838 232.182 63.572 232.334 63.268C232.486 62.9387 232.562 62.584 232.562 62.204C232.562 61.5453 232.321 61.0133 231.84 60.608C231.586 60.4307 231.181 60.2407 230.624 60.038C230.092 59.81 229.395 59.582 228.534 59.354C227.064 58.974 225.861 58.5433 224.924 58.062C223.986 57.5807 223.264 57.036 222.758 56.428C222.378 55.9467 222.099 55.4273 221.922 54.87C221.744 54.2873 221.656 53.654 221.656 52.97C221.656 52.134 221.833 51.374 222.188 50.69C222.568 49.9807 223.074 49.3727 223.708 48.866C224.366 48.334 225.126 47.9287 225.988 47.65C226.874 47.3713 227.812 47.232 228.8 47.232C229.737 47.232 230.662 47.3587 231.574 47.612C232.511 47.8653 233.372 48.2327 234.158 48.714C234.943 49.1953 235.602 49.7653 236.134 50.424L233.892 52.894C233.41 52.4127 232.878 51.9947 232.296 51.64C231.738 51.26 231.168 50.9687 230.586 50.766C230.003 50.5633 229.471 50.462 228.99 50.462C228.458 50.462 227.976 50.5127 227.546 50.614C227.115 50.7153 226.748 50.8673 226.444 51.07C226.165 51.2727 225.95 51.526 225.798 51.83C225.646 52.134 225.57 52.476 225.57 52.856C225.595 53.1853 225.671 53.502 225.798 53.806C225.95 54.0847 226.152 54.3253 226.406 54.528C226.684 54.7307 227.102 54.946 227.66 55.174C228.217 55.402 228.926 55.6173 229.788 55.82C231.054 56.1493 232.093 56.5167 232.904 56.922C233.74 57.302 234.398 57.7453 234.88 58.252C235.386 58.7333 235.741 59.2907 235.944 59.924C236.146 60.5573 236.248 61.2667 236.248 62.052C236.248 63.192 235.918 64.218 235.26 65.13C234.626 66.0167 233.765 66.7133 232.676 67.22C231.586 67.7267 230.37 67.98 229.028 67.98Z" fill="black"/>
</svg>
