<svg width="237" height="77" viewBox="0 0 237 77" fill="none" xmlns="http://www.w3.org/2000/svg">
<path d="M20.5946 30V2H24.9146V30H20.5946ZM2.31464 30V2H6.63464V30H2.31464ZM4.19464 18.12V13.96H22.5146V18.12H4.19464Z" fill="white"/>
<path d="M41.5043 30.4C39.3443 30.4 37.4243 29.9467 35.7443 29.04C34.091 28.1067 32.7843 26.84 31.8243 25.24C30.891 23.64 30.4243 21.8 30.4243 19.72C30.4243 18.0667 30.691 16.56 31.2243 15.2C31.7577 13.84 32.491 12.6667 33.4243 11.68C34.3843 10.6667 35.5177 9.89333 36.8243 9.36C38.1577 8.8 39.5977 8.52 41.1443 8.52C42.5043 8.52 43.771 8.78667 44.9443 9.32C46.1177 9.82667 47.131 10.5333 47.9843 11.44C48.8643 12.3467 49.531 13.4267 49.9843 14.68C50.4643 15.9067 50.691 17.2533 50.6643 18.72L50.6243 20.48H33.4643L32.5443 17.2H47.0643L46.4643 17.88V16.92C46.3843 16.04 46.091 15.2533 45.5843 14.56C45.0777 13.8667 44.4377 13.32 43.6643 12.92C42.891 12.52 42.051 12.32 41.1443 12.32C39.7043 12.32 38.491 12.6 37.5043 13.16C36.5177 13.6933 35.771 14.4933 35.2643 15.56C34.7577 16.6 34.5043 17.8933 34.5043 19.44C34.5043 20.9067 34.811 22.1867 35.4243 23.28C36.0377 24.3467 36.9043 25.1733 38.0243 25.76C39.1443 26.3467 40.4377 26.64 41.9043 26.64C42.9443 26.64 43.9043 26.4667 44.7843 26.12C45.691 25.7733 46.6643 25.1467 47.7043 24.24L49.7843 27.16C49.1443 27.8 48.3577 28.36 47.4243 28.84C46.5177 29.32 45.5443 29.7067 44.5043 30C43.491 30.2667 42.491 30.4 41.5043 30.4Z" fill="white"/>
<path d="M63.2218 30.4C61.4885 30.4 59.9018 29.92 58.4618 28.96C57.0485 28 55.9152 26.6933 55.0618 25.04C54.2085 23.3867 53.7818 21.52 53.7818 19.44C53.7818 17.3333 54.2085 15.4667 55.0618 13.84C55.9418 12.1867 57.1152 10.8933 58.5818 9.96C60.0752 9.02667 61.7418 8.56 63.5818 8.56C64.6752 8.56 65.6752 8.72 66.5818 9.04C67.4885 9.36 68.2752 9.81333 68.9418 10.4C69.6352 10.96 70.1952 11.6133 70.6218 12.36C71.0752 13.1067 71.3552 13.9067 71.4618 14.76L70.5418 14.44V9H74.7018V30H70.5418V25L71.5018 24.72C71.3418 25.44 71.0085 26.1467 70.5018 26.84C70.0218 27.5067 69.3952 28.1067 68.6218 28.64C67.8752 29.1733 67.0352 29.6 66.1018 29.92C65.1952 30.24 64.2352 30.4 63.2218 30.4ZM64.3018 26.6C65.5552 26.6 66.6618 26.2933 67.6218 25.68C68.5818 25.0667 69.3285 24.2267 69.8618 23.16C70.4218 22.0667 70.7018 20.8267 70.7018 19.44C70.7018 18.08 70.4218 16.8667 69.8618 15.8C69.3285 14.7333 68.5818 13.8933 67.6218 13.28C66.6618 12.6667 65.5552 12.36 64.3018 12.36C63.0752 12.36 61.9818 12.6667 61.0218 13.28C60.0885 13.8933 59.3418 14.7333 58.7818 15.8C58.2485 16.8667 57.9818 18.08 57.9818 19.44C57.9818 20.8267 58.2485 22.0667 58.7818 23.16C59.3418 24.2267 60.0885 25.0667 61.0218 25.68C61.9818 26.2933 63.0752 26.6 64.3018 26.6Z" fill="white"/>
<path d="M80.4543 30V9H84.6143V15.6L84.2143 14C84.5077 12.9867 85.001 12.0667 85.6943 11.24C86.4143 10.4133 87.2277 9.76 88.1343 9.28C89.0677 8.8 90.0277 8.56 91.0143 8.56C91.4677 8.56 91.8943 8.6 92.2943 8.68C92.721 8.76 93.0543 8.85333 93.2943 8.96L92.2143 13.44C91.8943 13.3067 91.5343 13.2 91.1343 13.12C90.761 13.0133 90.3877 12.96 90.0143 12.96C89.2943 12.96 88.601 13.1067 87.9343 13.4C87.2943 13.6667 86.721 14.0533 86.2143 14.56C85.7343 15.04 85.3477 15.6133 85.0543 16.28C84.761 16.92 84.6143 17.6267 84.6143 18.4V30H80.4543Z" fill="white"/>
<path d="M99.9684 30V3.64H104.088V30H99.9684ZM95.6084 13V9H108.968V13H95.6084Z" fill="white"/>
<path d="M112.72 30V0.400002H116.84V13.32L116.12 13.8C116.387 12.8667 116.907 12.0133 117.68 11.24C118.453 10.44 119.373 9.8 120.44 9.32C121.507 8.81334 122.6 8.56 123.72 8.56C125.32 8.56 126.653 8.88 127.72 9.52C128.787 10.1333 129.587 11.08 130.12 12.36C130.653 13.64 130.92 15.2533 130.92 17.2V30H126.8V17.48C126.8 16.28 126.64 15.2933 126.32 14.52C126 13.72 125.507 13.1467 124.84 12.8C124.173 12.4267 123.347 12.2667 122.36 12.32C121.56 12.32 120.827 12.4533 120.16 12.72C119.493 12.96 118.907 13.3067 118.4 13.76C117.92 14.2133 117.533 14.7467 117.24 15.36C116.973 15.9467 116.84 16.5867 116.84 17.28V30H114.8C114.453 30 114.107 30 113.76 30C113.413 30 113.067 30 112.72 30Z" fill="white"/>
<path d="M141.669 30L134.509 9L138.669 8.96L143.789 24.68L142.869 24.6L148.429 12.32H150.909L156.509 24.64L155.429 24.72L160.589 9H164.749L157.669 30H154.829L148.989 16.64L149.909 16.76L144.469 30H141.669Z" fill="white"/>
<path d="M177.355 30.4C175.302 30.4 173.462 29.9333 171.835 29C170.235 28.04 168.969 26.7467 168.035 25.12C167.102 23.4667 166.635 21.5867 166.635 19.48C166.635 17.3733 167.102 15.5067 168.035 13.88C168.969 12.2267 170.235 10.9333 171.835 10C173.462 9.04 175.302 8.56 177.355 8.56C179.382 8.56 181.195 9.04 182.795 10C184.422 10.9333 185.702 12.2267 186.635 13.88C187.569 15.5067 188.035 17.3733 188.035 19.48C188.035 21.5867 187.569 23.4667 186.635 25.12C185.702 26.7467 184.422 28.04 182.795 29C181.195 29.9333 179.382 30.4 177.355 30.4ZM177.355 26.64C178.609 26.64 179.729 26.3333 180.715 25.72C181.702 25.08 182.475 24.2267 183.035 23.16C183.595 22.0667 183.862 20.84 183.835 19.48C183.862 18.0933 183.595 16.8667 183.035 15.8C182.475 14.7067 181.702 13.8533 180.715 13.24C179.729 12.6267 178.609 12.32 177.355 12.32C176.102 12.32 174.969 12.64 173.955 13.28C172.969 13.8933 172.195 14.7467 171.635 15.84C171.075 16.9067 170.809 18.12 170.835 19.48C170.809 20.84 171.075 22.0667 171.635 23.16C172.195 24.2267 172.969 25.08 173.955 25.72C174.969 26.3333 176.102 26.64 177.355 26.64Z" fill="white"/>
<path d="M201.965 30.4C199.911 30.4 198.071 29.9333 196.445 29C194.845 28.04 193.578 26.7467 192.645 25.12C191.711 23.4667 191.245 21.5867 191.245 19.48C191.245 17.3733 191.711 15.5067 192.645 13.88C193.578 12.2267 194.845 10.9333 196.445 10C198.071 9.04 199.911 8.56 201.965 8.56C203.991 8.56 205.805 9.04 207.405 10C209.031 10.9333 210.311 12.2267 211.245 13.88C212.178 15.5067 212.645 17.3733 212.645 19.48C212.645 21.5867 212.178 23.4667 211.245 25.12C210.311 26.7467 209.031 28.04 207.405 29C205.805 29.9333 203.991 30.4 201.965 30.4ZM201.965 26.64C203.218 26.64 204.338 26.3333 205.325 25.72C206.311 25.08 207.085 24.2267 207.645 23.16C208.205 22.0667 208.471 20.84 208.445 19.48C208.471 18.0933 208.205 16.8667 207.645 15.8C207.085 14.7067 206.311 13.8533 205.325 13.24C204.338 12.6267 203.218 12.32 201.965 12.32C200.711 12.32 199.578 12.64 198.565 13.28C197.578 13.8933 196.805 14.7467 196.245 15.84C195.685 16.9067 195.418 18.12 195.445 19.48C195.418 20.84 195.685 22.0667 196.245 23.16C196.805 24.2267 197.578 25.08 198.565 25.72C199.578 26.3333 200.711 26.64 201.965 26.64Z" fill="white"/>
<path d="M225.894 30.4C223.974 30.4 222.254 29.9333 220.734 29C219.241 28.04 218.054 26.7467 217.174 25.12C216.294 23.4667 215.854 21.5867 215.854 19.48C215.854 17.3733 216.281 15.5067 217.134 13.88C218.014 12.2267 219.201 10.9333 220.694 10C222.187 9.04 223.881 8.56 225.774 8.56C226.814 8.56 227.814 8.73333 228.774 9.08C229.761 9.4 230.641 9.85333 231.414 10.44C232.187 11 232.787 11.6267 233.214 12.32C233.667 12.9867 233.894 13.6667 233.894 14.36L232.694 14.44V0.400002H236.814V30H232.694V25H233.494C233.494 25.64 233.281 26.28 232.854 26.92C232.427 27.5333 231.854 28.1067 231.134 28.64C230.441 29.1733 229.627 29.6 228.694 29.92C227.787 30.24 226.854 30.4 225.894 30.4ZM226.454 26.84C227.707 26.84 228.814 26.52 229.774 25.88C230.734 25.24 231.481 24.3733 232.014 23.28C232.574 22.16 232.854 20.8933 232.854 19.48C232.854 18.0667 232.574 16.8133 232.014 15.72C231.481 14.6 230.734 13.72 229.774 13.08C228.814 12.44 227.707 12.12 226.454 12.12C225.201 12.12 224.094 12.44 223.134 13.08C222.174 13.72 221.414 14.6 220.854 15.72C220.321 16.8133 220.054 18.0667 220.054 19.48C220.054 20.8933 220.321 22.16 220.854 23.28C221.414 24.3733 222.174 25.24 223.134 25.88C224.094 26.52 225.201 26.84 226.454 26.84Z" fill="white"/>
<path d="M8.56091 68L0.0869141 41.4H4.45691L9.58692 58.044C9.73891 58.4493 9.87825 58.9307 10.0049 59.488C10.1316 60.02 10.2456 60.5647 10.3469 61.122C10.4482 61.6793 10.5369 62.1987 10.6129 62.68C10.7142 63.1613 10.8029 63.554 10.8789 63.858L9.77691 63.82C10.1569 62.4773 10.4482 61.4387 10.6509 60.704C10.8789 59.9693 11.0562 59.412 11.1829 59.032C11.3096 58.6267 11.4236 58.2847 11.5249 58.006L16.3129 45.998H19.9989L24.6349 58.006C24.8882 58.614 25.1036 59.222 25.2809 59.83C25.4836 60.4127 25.6609 61.008 25.8129 61.616C25.9649 62.1987 26.1296 62.8193 26.3069 63.478L25.3189 63.744C25.4456 63.06 25.5342 62.528 25.5849 62.148C25.6609 61.7427 25.7242 61.4133 25.7749 61.16C25.8256 60.9067 25.8762 60.666 25.9269 60.438C25.9776 60.1847 26.0536 59.868 26.1549 59.488C26.2816 59.108 26.4462 58.5887 26.6489 57.93L31.7029 41.4H36.1109L27.6369 68H24.7869L17.7569 51.356L18.0989 51.508L11.3349 68H8.56091Z" fill="white"/>
<path d="M48.1076 68.38C46.0556 68.38 44.2316 67.9493 42.6356 67.088C41.065 66.2013 39.8236 64.998 38.9116 63.478C38.025 61.958 37.5816 60.21 37.5816 58.234C37.5816 56.6633 37.835 55.232 38.3416 53.94C38.8483 52.648 39.545 51.5333 40.4316 50.596C41.3436 49.6333 42.4203 48.8987 43.6616 48.392C44.9283 47.86 46.2963 47.594 47.7656 47.594C49.0576 47.594 50.261 47.8473 51.3756 48.354C52.4903 48.8353 53.453 49.5067 54.2636 50.368C55.0996 51.2293 55.733 52.2553 56.1636 53.446C56.6196 54.6113 56.835 55.8907 56.8096 57.284L56.7716 58.956H40.4696L39.5956 55.84H53.3896L52.8196 56.486V55.574C52.7436 54.738 52.465 53.9907 51.9836 53.332C51.5023 52.6733 50.8943 52.154 50.1596 51.774C49.425 51.394 48.627 51.204 47.7656 51.204C46.3976 51.204 45.245 51.47 44.3076 52.002C43.3703 52.5087 42.661 53.2687 42.1796 54.282C41.6983 55.27 41.4576 56.4987 41.4576 57.968C41.4576 59.3613 41.749 60.5773 42.3316 61.616C42.9143 62.6293 43.7376 63.4147 44.8016 63.972C45.8656 64.5293 47.0943 64.808 48.4876 64.808C49.4756 64.808 50.3876 64.6433 51.2236 64.314C52.085 63.9847 53.0096 63.3893 53.9976 62.528L55.9736 65.302C55.3656 65.91 54.6183 66.442 53.7316 66.898C52.8703 67.354 51.9456 67.7213 50.9576 68C49.995 68.2533 49.045 68.38 48.1076 68.38Z" fill="white"/>
<path d="M71.5513 68.38C70.6899 68.38 69.8286 68.2407 68.9673 67.962C68.1313 67.6833 67.3586 67.316 66.6493 66.86C65.9653 66.3787 65.3826 65.8593 64.9013 65.302C64.4453 64.7193 64.1413 64.1367 63.9893 63.554L64.9773 63.022V67.886H61.0633V39.88H64.9773V52.61L64.3693 52.268C64.4959 51.6853 64.7746 51.128 65.2053 50.596C65.6359 50.0387 66.1806 49.5447 66.8393 49.114C67.5233 48.658 68.2579 48.3033 69.0433 48.05C69.8286 47.7713 70.6266 47.632 71.4373 47.632C73.2359 47.632 74.8319 48.0753 76.2253 48.962C77.6186 49.8487 78.7206 51.0773 79.5313 52.648C80.3419 54.1933 80.7473 55.9667 80.7473 57.968C80.7473 59.9693 80.3419 61.7553 79.5313 63.326C78.7459 64.8967 77.6566 66.138 76.2633 67.05C74.8699 67.9367 73.2993 68.38 71.5513 68.38ZM70.9053 64.808C72.0706 64.808 73.1093 64.5167 74.0213 63.934C74.9333 63.326 75.6553 62.5153 76.1873 61.502C76.7193 60.4633 76.9853 59.2853 76.9853 57.968C76.9853 56.676 76.7193 55.5233 76.1873 54.51C75.6806 53.4713 74.9713 52.6607 74.0593 52.078C73.1473 51.4953 72.0959 51.204 70.9053 51.204C69.7146 51.204 68.6633 51.4953 67.7513 52.078C66.8393 52.6607 66.1173 53.4713 65.5853 54.51C65.0533 55.5233 64.7873 56.676 64.7873 57.968C64.7873 59.2853 65.0533 60.4633 65.5853 61.502C66.1173 62.5153 66.8393 63.326 67.7513 63.934C68.6633 64.5167 69.7146 64.808 70.9053 64.808Z" fill="white"/>
<path d="M96.6372 68V41.4H107.049C108.949 41.4 110.659 41.7167 112.179 42.35C113.725 42.9833 115.042 43.8953 116.131 45.086C117.221 46.2767 118.057 47.6827 118.639 49.304C119.222 50.9253 119.513 52.724 119.513 54.7C119.513 56.676 119.222 58.4873 118.639 60.134C118.057 61.7553 117.221 63.1613 116.131 64.352C115.067 65.5173 113.763 66.4167 112.217 67.05C110.672 67.6833 108.949 68 107.049 68H96.6372ZM100.741 64.466L100.627 64.048H106.859C108.202 64.048 109.393 63.8327 110.431 63.402C111.495 62.9713 112.382 62.3633 113.091 61.578C113.826 60.7673 114.383 59.7793 114.763 58.614C115.143 57.4487 115.333 56.144 115.333 54.7C115.333 53.256 115.143 51.964 114.763 50.824C114.383 49.6587 113.826 48.6707 113.091 47.86C112.357 47.0493 111.47 46.4287 110.431 45.998C109.393 45.5673 108.202 45.352 106.859 45.352H100.513L100.741 45.01V64.466Z" fill="white"/>
<path d="M133.385 68.38C131.333 68.38 129.509 67.9493 127.913 67.088C126.342 66.2013 125.101 64.998 124.189 63.478C123.302 61.958 122.859 60.21 122.859 58.234C122.859 56.6633 123.112 55.232 123.619 53.94C124.126 52.648 124.822 51.5333 125.709 50.596C126.621 49.6333 127.698 48.8987 128.939 48.392C130.206 47.86 131.574 47.594 133.043 47.594C134.335 47.594 135.538 47.8473 136.653 48.354C137.768 48.8353 138.73 49.5067 139.541 50.368C140.377 51.2293 141.01 52.2553 141.441 53.446C141.897 54.6113 142.112 55.8907 142.087 57.284L142.049 58.956H125.747L124.873 55.84H138.667L138.097 56.486V55.574C138.021 54.738 137.742 53.9907 137.261 53.332C136.78 52.6733 136.172 52.154 135.437 51.774C134.702 51.394 133.904 51.204 133.043 51.204C131.675 51.204 130.522 51.47 129.585 52.002C128.648 52.5087 127.938 53.2687 127.457 54.282C126.976 55.27 126.735 56.4987 126.735 57.968C126.735 59.3613 127.026 60.5773 127.609 61.616C128.192 62.6293 129.015 63.4147 130.079 63.972C131.143 64.5293 132.372 64.808 133.765 64.808C134.753 64.808 135.665 64.6433 136.501 64.314C137.362 63.9847 138.287 63.3893 139.275 62.528L141.251 65.302C140.643 65.91 139.896 66.442 139.009 66.898C138.148 67.354 137.223 67.7213 136.235 68C135.272 68.2533 134.322 68.38 133.385 68.38Z" fill="white"/>
<path d="M152.991 68.38C151.319 68.38 149.811 68.0887 148.469 67.506C147.126 66.9233 146.011 66.062 145.125 64.922L147.785 62.642C148.545 63.5287 149.368 64.1747 150.255 64.58C151.167 64.96 152.193 65.15 153.333 65.15C153.789 65.15 154.207 65.0993 154.587 64.998C154.992 64.8713 155.334 64.694 155.613 64.466C155.917 64.238 156.145 63.972 156.297 63.668C156.449 63.3387 156.525 62.984 156.525 62.604C156.525 61.9453 156.284 61.4133 155.803 61.008C155.549 60.8307 155.144 60.6407 154.587 60.438C154.055 60.21 153.358 59.982 152.497 59.754C151.027 59.374 149.824 58.9433 148.887 58.462C147.949 57.9807 147.227 57.436 146.721 56.828C146.341 56.3467 146.062 55.8273 145.885 55.27C145.707 54.6873 145.619 54.054 145.619 53.37C145.619 52.534 145.796 51.774 146.151 51.09C146.531 50.3807 147.037 49.7727 147.671 49.266C148.329 48.734 149.089 48.3287 149.951 48.05C150.837 47.7713 151.775 47.632 152.763 47.632C153.7 47.632 154.625 47.7587 155.537 48.012C156.474 48.2653 157.335 48.6327 158.121 49.114C158.906 49.5953 159.565 50.1653 160.097 50.824L157.855 53.294C157.373 52.8127 156.841 52.3947 156.259 52.04C155.701 51.66 155.131 51.3687 154.549 51.166C153.966 50.9633 153.434 50.862 152.953 50.862C152.421 50.862 151.939 50.9127 151.509 51.014C151.078 51.1153 150.711 51.2673 150.407 51.47C150.128 51.6727 149.913 51.926 149.761 52.23C149.609 52.534 149.533 52.876 149.533 53.256C149.558 53.5853 149.634 53.902 149.761 54.206C149.913 54.4847 150.115 54.7253 150.369 54.928C150.647 55.1307 151.065 55.346 151.623 55.574C152.18 55.802 152.889 56.0173 153.751 56.22C155.017 56.5493 156.056 56.9167 156.867 57.322C157.703 57.702 158.361 58.1453 158.843 58.652C159.349 59.1333 159.704 59.6907 159.907 60.324C160.109 60.9573 160.211 61.6667 160.211 62.452C160.211 63.592 159.881 64.618 159.223 65.53C158.589 66.4167 157.728 67.1133 156.639 67.62C155.549 68.1267 154.333 68.38 152.991 68.38Z" fill="white"/>
<path d="M165.17 68V48.05H169.084V68H165.17ZM167.07 43.642C166.234 43.642 165.588 43.4267 165.132 42.996C164.676 42.5653 164.448 41.9573 164.448 41.172C164.448 40.4373 164.676 39.842 165.132 39.386C165.614 38.93 166.26 38.702 167.07 38.702C167.906 38.702 168.552 38.9173 169.008 39.348C169.464 39.7787 169.692 40.3867 169.692 41.172C169.692 41.9067 169.452 42.502 168.97 42.958C168.514 43.414 167.881 43.642 167.07 43.642Z" fill="white"/>
<path d="M184.03 76.74C182.612 76.74 181.193 76.512 179.774 76.056C178.381 75.6253 177.254 75.0553 176.392 74.346L177.836 71.306C178.343 71.686 178.938 72.0153 179.622 72.294C180.306 72.598 181.028 72.826 181.788 72.978C182.548 73.1553 183.296 73.244 184.03 73.244C185.424 73.244 186.589 73.016 187.526 72.56C188.464 72.104 189.173 71.4327 189.654 70.546C190.136 69.6593 190.376 68.5573 190.376 67.24V63.402L190.794 63.668C190.668 64.4533 190.25 65.2133 189.54 65.948C188.856 66.6573 187.995 67.24 186.956 67.696C185.918 68.152 184.854 68.38 183.764 68.38C181.864 68.38 180.167 67.9367 178.672 67.05C177.203 66.138 176.038 64.9093 175.176 63.364C174.315 61.7933 173.884 60.0073 173.884 58.006C173.884 56.0047 174.302 54.2313 175.138 52.686C176 51.1153 177.165 49.8867 178.634 49C180.129 48.088 181.801 47.632 183.65 47.632C184.41 47.632 185.145 47.7333 185.854 47.936C186.564 48.1133 187.222 48.3793 187.83 48.734C188.438 49.0633 188.983 49.4307 189.464 49.836C189.946 50.2413 190.338 50.672 190.642 51.128C190.946 51.584 191.136 52.0147 191.212 52.42L190.376 52.724V48.05H194.29V66.784C194.29 68.38 194.05 69.786 193.568 71.002C193.112 72.2433 192.441 73.282 191.554 74.118C190.668 74.9793 189.591 75.6253 188.324 76.056C187.058 76.512 185.626 76.74 184.03 76.74ZM184.182 64.77C185.424 64.77 186.526 64.4787 187.488 63.896C188.451 63.3133 189.198 62.5153 189.73 61.502C190.262 60.4887 190.528 59.3233 190.528 58.006C190.528 56.6887 190.25 55.5233 189.692 54.51C189.16 53.4713 188.413 52.6607 187.45 52.078C186.513 51.4953 185.424 51.204 184.182 51.204C182.966 51.204 181.877 51.508 180.914 52.116C179.977 52.6987 179.23 53.5093 178.672 54.548C178.14 55.5613 177.874 56.714 177.874 58.006C177.874 59.298 178.14 60.4633 178.672 61.502C179.23 62.5153 179.977 63.3133 180.914 63.896C181.877 64.4787 182.966 64.77 184.182 64.77Z" fill="white"/>
<path d="M199.778 68V48.05H203.692V52.154L203.008 52.61C203.261 51.7233 203.755 50.9127 204.49 50.178C205.225 49.418 206.099 48.81 207.112 48.354C208.125 47.8727 209.164 47.632 210.228 47.632C211.748 47.632 213.015 47.936 214.028 48.544C215.041 49.1267 215.801 50.026 216.308 51.242C216.815 52.458 217.068 53.9907 217.068 55.84V68H213.154V56.106C213.154 54.966 213.002 54.0287 212.698 53.294C212.394 52.534 211.925 51.9893 211.292 51.66C210.659 51.3053 209.873 51.1533 208.936 51.204C208.176 51.204 207.479 51.3307 206.846 51.584C206.213 51.812 205.655 52.1413 205.174 52.572C204.718 53.0027 204.351 53.5093 204.072 54.092C203.819 54.6493 203.692 55.2573 203.692 55.916V68H201.754C201.425 68 201.095 68 200.766 68C200.437 68 200.107 68 199.778 68Z" fill="white"/>
<path d="M229.028 68.38C227.356 68.38 225.848 68.0887 224.506 67.506C223.163 66.9233 222.048 66.062 221.162 64.922L223.822 62.642C224.582 63.5287 225.405 64.1747 226.292 64.58C227.204 64.96 228.23 65.15 229.37 65.15C229.826 65.15 230.244 65.0993 230.624 64.998C231.029 64.8713 231.371 64.694 231.65 64.466C231.954 64.238 232.182 63.972 232.334 63.668C232.486 63.3387 232.562 62.984 232.562 62.604C232.562 61.9453 232.321 61.4133 231.84 61.008C231.586 60.8307 231.181 60.6407 230.624 60.438C230.092 60.21 229.395 59.982 228.534 59.754C227.064 59.374 225.861 58.9433 224.924 58.462C223.986 57.9807 223.264 57.436 222.758 56.828C222.378 56.3467 222.099 55.8273 221.922 55.27C221.744 54.6873 221.656 54.054 221.656 53.37C221.656 52.534 221.833 51.774 222.188 51.09C222.568 50.3807 223.074 49.7727 223.708 49.266C224.366 48.734 225.126 48.3287 225.988 48.05C226.874 47.7713 227.812 47.632 228.8 47.632C229.737 47.632 230.662 47.7587 231.574 48.012C232.511 48.2653 233.372 48.6327 234.158 49.114C234.943 49.5953 235.602 50.1653 236.134 50.824L233.892 53.294C233.41 52.8127 232.878 52.3947 232.296 52.04C231.738 51.66 231.168 51.3687 230.586 51.166C230.003 50.9633 229.471 50.862 228.99 50.862C228.458 50.862 227.976 50.9127 227.546 51.014C227.115 51.1153 226.748 51.2673 226.444 51.47C226.165 51.6727 225.95 51.926 225.798 52.23C225.646 52.534 225.57 52.876 225.57 53.256C225.595 53.5853 225.671 53.902 225.798 54.206C225.95 54.4847 226.152 54.7253 226.406 54.928C226.684 55.1307 227.102 55.346 227.66 55.574C228.217 55.802 228.926 56.0173 229.788 56.22C231.054 56.5493 232.093 56.9167 232.904 57.322C233.74 57.702 234.398 58.1453 234.88 58.652C235.386 59.1333 235.741 59.6907 235.944 60.324C236.146 60.9573 236.248 61.6667 236.248 62.452C236.248 63.592 235.918 64.618 235.26 65.53C234.626 66.4167 233.765 67.1133 232.676 67.62C231.586 68.1267 230.37 68.38 229.028 68.38Z" fill="white"/>
</svg>
