<svg width="42" height="67" viewBox="0 0 42 67" fill="none" xmlns="http://www.w3.org/2000/svg">
<path d="M2.09375 18.8438C2.09375 13.8461 4.07907 9.05309 7.61296 5.51921C11.1468 1.98532 15.9398 0 20.9375 0C25.9352 0 30.7282 1.98532 34.262 5.51921C37.7959 9.05309 39.7812 13.8461 39.7812 18.8438C39.7812 23.8414 37.7959 28.6344 34.262 32.1683C30.7282 35.7022 25.9352 37.6875 20.9375 37.6875C15.9398 37.6875 11.1468 35.7022 7.61296 32.1683C4.07907 28.6344 2.09375 23.8414 2.09375 18.8438ZM20.9375 10.4688C22.0891 10.4688 23.0312 9.52656 23.0312 8.375C23.0312 7.22344 22.0891 6.28125 20.9375 6.28125C14.002 6.28125 8.375 11.9082 8.375 18.8438C8.375 19.9953 9.31719 20.9375 10.4688 20.9375C11.6203 20.9375 12.5625 19.9953 12.5625 18.8438C12.5625 14.2244 16.3182 10.4688 20.9375 10.4688ZM16.75 62.8125V41.4955C18.1109 41.7441 19.5111 41.875 20.9375 41.875C22.3639 41.875 23.7641 41.7441 25.125 41.4955V62.8125C25.125 65.1287 23.2537 67 20.9375 67C18.6213 67 16.75 65.1287 16.75 62.8125Z" fill="#6BA292"/>
</svg>
