<svg width="27" height="27" viewBox="0 0 27 27" fill="none" xmlns="http://www.w3.org/2000/svg">
<g clip-path="url(#clip0_17_283)">
<path d="M8.6959 1.29748C8.28984 0.316619 7.21934 -0.205452 6.19629 0.0740406L1.55566 1.33967C0.638086 1.59279 0 2.42599 0 3.37521C0 16.4217 10.5785 27.0002 23.625 27.0002C24.5742 27.0002 25.4074 26.3621 25.6605 25.4445L26.9262 20.8039C27.2057 19.7809 26.6836 18.7104 25.7027 18.3043L20.6402 16.1949C19.7807 15.8363 18.784 16.0842 18.1986 16.8067L16.0682 19.4065C12.3557 17.6504 9.3498 14.6445 7.59375 10.932L10.1936 8.80685C10.916 8.21623 11.1639 7.22482 10.8053 6.36525L8.6959 1.30275V1.29748Z" fill="white"/>
</g>
<defs>
<clipPath id="clip0_17_283">
<rect width="27" height="27" fill="white"/>
</clipPath>
</defs>
</svg>
